<?xml version="1.0" encoding="UTF-8" standalone="no"?>
<!-- Created with Inkscape (http://www.inkscape.org/) -->

<svg
   width="64"
   height="128"
   viewBox="0 0 32 64"
   version="1.1"
   id="svg1"
   inkscape:version="1.4 (86a8ad7, 2024-10-11)"
   sodipodi:docname="leafy_04.svg"
   xmlns:inkscape="http://www.inkscape.org/namespaces/inkscape"
   xmlns:sodipodi="http://sodipodi.sourceforge.net/DTD/sodipodi-0.dtd"
   xmlns="http://www.w3.org/2000/svg"
   xmlns:svg="http://www.w3.org/2000/svg">
  <sodipodi:namedview
     id="namedview1"
     pagecolor="#505050"
     bordercolor="#ffffff"
     borderopacity="1"
     inkscape:showpageshadow="0"
     inkscape:pageopacity="0"
     inkscape:pagecheckerboard="1"
     inkscape:deskcolor="#d1d1d1"
     inkscape:document-units="px"
     inkscape:zoom="11.419338"
     inkscape:cx="9.9392802"
     inkscape:cy="33.583383"
     inkscape:window-width="2560"
     inkscape:window-height="1351"
     inkscape:window-x="3831"
     inkscape:window-y="1194"
     inkscape:window-maximized="1"
     inkscape:current-layer="layer1">
    <sodipodi:guide
       position="0,64"
       orientation="0,32"
       id="guide4"
       inkscape:locked="false" />
    <sodipodi:guide
       position="32,64"
       orientation="64,0"
       id="guide5"
       inkscape:locked="false" />
    <sodipodi:guide
       position="32,0"
       orientation="0,-32"
       id="guide6"
       inkscape:locked="false" />
    <sodipodi:guide
       position="0,0"
       orientation="-64,0"
       id="guide7"
       inkscape:locked="false" />
  </sodipodi:namedview>
  <defs
     id="defs1" />
  <g
     inkscape:label="Layer 1"
     inkscape:groupmode="layer"
     id="layer1">
    <g
       id="Tree_6_1_"
       transform="matrix(0.14109971,0,0,0.12994924,-327.35288,-341.57157)">
					<g
   id="Leaves_22_">
						<path
   class="st88"
   d="m 2543.9,2866.2 c 12.9,118.7 -16.1,194.7 -109.5,194.7 -91.1,0 -124.9,-76.1 -111.6,-194.7 17.4,-155.2 111.6,-237.7 111.6,-237.7 0,0 97.3,126.1 109.5,237.7 z"
   id="path549"
   style="fill:#40ee96" />

						<path
   class="st89"
   d="m 2543.9,2866.2 c 12.9,118.7 -16.1,194.7 -109.5,194.7 17.9,-36.4 37.6,-87.6 46,-151.2 17.2,-130.5 -23.6,-234.2 -46,-281.2 0,0 97.3,126.1 109.5,237.7 z"
   id="path550"
   style="fill:#0fb75b" />

					</g>

					<g
   id="Trunk_and_branches_9_">
						<g
   id="g552">
							<path
   class="st90"
   d="m 2423.6,3120.8 h 23.3 c 0.1,0 0.2,-0.1 0.2,-0.2 L 2436,2811 c 0,-1 -1.4,-1 -1.4,0 l -11.1,309.6 c 0,0.1 0,0.2 0.1,0.2 z"
   id="path551"
   style="fill:#a77b51" />

							<path
   class="st91"
   d="m 2435.4,3121 11.6,-0.1 c 0.1,0 0.2,-0.1 0.2,-0.2 L 2436,2811 c 0,-1 -1.4,-1 -1.4,0 l 0.6,309.7 c 0,0.2 0.1,0.3 0.2,0.3 z"
   id="path552"
   style="fill:#6b4019" />

						</g>

						<g
   id="g554">
							<path
   class="st90"
   d="m 2437.3,2942.2 c 0,0 0.8,16.3 0.8,16.3 l 68.2,-104 c 0.2,-0.3 -0.2,-0.6 -0.5,-0.3 l -68.5,87.9 z"
   id="path553"
   style="fill:#a77b51" />

							<path
   class="st91"
   d="m 2437.7,2949.9 c 0.2,4.4 0.4,8.6 0.5,8.6 l 68.2,-104 c 0.1,-0.2 0,-0.3 -0.1,-0.4 -0.2,-0.1 -68.8,92.1 -68.6,95.8 z"
   id="path554"
   style="fill:#6b4019" />

						</g>

						<g
   id="g556">
							<path
   class="st91"
   d="m 2429.7,3026.6 c 0,0 -0.9,18.6 -0.9,18.5 l -77.5,-118.2 c -0.2,-0.4 0.3,-0.7 0.5,-0.4 l 77.9,100 c 0.1,0 0.1,0.1 0,0.1 z"
   id="path555"
   style="fill:#6b4019" />

							<path
   class="st90"
   d="M 2428.8,3045.2 2351.3,2927 c -0.1,-0.2 0,-0.4 0.1,-0.5 0.1,-0.1 77.9,108.9 77.9,108.9 z"
   id="path556"
   style="fill:#a77b51" />

						</g>

					</g>

				</g>
  </g>
</svg>
