<?xml version="1.0" encoding="UTF-8" standalone="no"?>
<!-- Created with Inkscape (http://www.inkscape.org/) -->

<svg
   width="32"
   height="64"
   viewBox="0 0 32 64"
   version="1.1"
   id="svg1"
   inkscape:version="1.4 (86a8ad7, 2024-10-11)"
   sodipodi:docname="pine_01.svg"
   xmlns:inkscape="http://www.inkscape.org/namespaces/inkscape"
   xmlns:sodipodi="http://sodipodi.sourceforge.net/DTD/sodipodi-0.dtd"
   xmlns="http://www.w3.org/2000/svg"
   xmlns:svg="http://www.w3.org/2000/svg">
  <sodipodi:namedview
     id="namedview1"
     pagecolor="#505050"
     bordercolor="#ffffff"
     borderopacity="1"
     inkscape:showpageshadow="0"
     inkscape:pageopacity="0"
     inkscape:pagecheckerboard="1"
     inkscape:deskcolor="#d1d1d1"
     inkscape:document-units="px"
     inkscape:zoom="11.419338"
     inkscape:cx="9.9392802"
     inkscape:cy="33.583383"
     inkscape:window-width="2560"
     inkscape:window-height="1351"
     inkscape:window-x="3831"
     inkscape:window-y="1194"
     inkscape:window-maximized="1"
     inkscape:current-layer="layer1">
    <sodipodi:guide
       position="0,64"
       orientation="0,32"
       id="guide4"
       inkscape:locked="false" />
    <sodipodi:guide
       position="32,64"
       orientation="64,0"
       id="guide5"
       inkscape:locked="false" />
    <sodipodi:guide
       position="32,0"
       orientation="0,-32"
       id="guide6"
       inkscape:locked="false" />
    <sodipodi:guide
       position="0,0"
       orientation="-64,0"
       id="guide7"
       inkscape:locked="false" />
  </sodipodi:namedview>
  <defs
     id="defs1" />
  <g
     inkscape:label="Layer 1"
     inkscape:groupmode="layer"
     id="layer1">
    <g
       id="g669"
       transform="matrix(0.11177087,0,0,0.14168693,-309.15823,-490.84603)">
						<g
   id="g665">
							<rect
   x="2893.7"
   y="3830.1001"
   class="st103"
   width="33.400002"
   height="85.900002"
   id="rect664"
   style="fill:#685c2f" />

							<path
   class="st104"
   d="m 2893.7,3830.1 v 85.9 h 33.4 c -26.5,-8.7 -22.4,-85.9 -22.4,-85.9 z"
   id="path664"
   style="opacity:0.31;fill:#685c2f" />

						</g>

						<g
   id="g668">
							<g
   id="g667">
								<path
   class="st105"
   d="m 3052.3,3843.9 c -20,-28.4 -39.7,-57 -59.2,-85.8 14.5,-0.1 21.8,-0.2 36.4,-0.3 -18,-31.2 -35.9,-62.6 -53.6,-94 15.3,0 23,0 38.3,-0.1 -35.6,-66.3 -71,-132.9 -106.2,-199.4 -1.9,7.9 -2.9,11.8 -5,19.7 -18.2,63 -42.2,121.5 -71.9,179.9 14.7,0 22.1,0 36.8,0 -18.8,32.8 -38.7,64.3 -60,95.6 13.8,-0.1 20.7,-0.2 34.6,-0.3 -24.2,30.6 -49.7,60.2 -76.5,88.6 95.4,-1.3 190.8,-2.6 286.3,-3.9 z"
   id="path665"
   style="fill:#5fab20" />

								<path
   class="st106"
   d="m 2766,3847.8 c 18.9,-0.3 28.4,-0.4 47.3,-0.6 25.6,-26.7 50.4,-53.9 74.4,-82.1 -5.9,-4.4 -8.9,-6.5 -14.7,-10.9 -13.3,-9.9 -15.7,-31.4 -6.7,-48.7 10.5,-20.2 15.4,-30.2 24.4,-50.4 -2.5,-1.1 -3.8,-1.7 -6.3,-2.9 -13.4,-6.1 -19.5,-25.1 -14.7,-42.3 6.9,-24.2 12.7,-49.1 17.4,-73.8 -16.1,44.1 -34.7,86.1 -55.9,127.9 14.7,0 22.1,0 36.8,0 -18.8,32.8 -38.7,64.3 -60,95.6 13.8,-0.1 20.7,-0.2 34.6,-0.3 -24.4,30.5 -49.8,60.2 -76.6,88.5 z"
   id="path666"
   style="opacity:0.6;fill:#5fab20" />

								<path
   class="st107"
   d="m 2940.2,3655.1 c 10.3,16.1 15.5,24.2 26,40.2 12.3,18.8 5.4,46.7 -14.3,54.9 -3,1.2 -4.5,1.9 -7.4,3.1 35.3,31 71.2,61.1 107.8,90.6 -20,-28.4 -39.7,-57 -59.2,-85.8 14.5,-0.1 21.8,-0.2 36.4,-0.3 -18,-31.2 -35.9,-62.6 -53.6,-94 15.3,0 23,0 38.3,-0.1 -35.6,-66.3 -71,-132.9 -106.2,-199.4 -1.9,7.9 -2.9,11.8 -5,19.7 18.6,42.5 37,85.1 55.1,127.8 5.1,12.1 2.7,26.5 -6,33.6 -4.7,3.9 -7.1,5.8 -11.9,9.7 z"
   id="path667"
   style="opacity:0.53;fill:#5fab20" />

							</g>

						</g>

					</g>
  </g>
</svg>
