<?xml version="1.0" encoding="UTF-8" standalone="no"?>
<!-- Created with Inkscape (http://www.inkscape.org/) -->

<svg
   width="64"
   height="128"
   viewBox="0 0 32 64"
   version="1.1"
   id="svg1"
   inkscape:version="1.4 (86a8ad7, 2024-10-11)"
   sodipodi:docname="pine_02.svg"
   xmlns:inkscape="http://www.inkscape.org/namespaces/inkscape"
   xmlns:sodipodi="http://sodipodi.sourceforge.net/DTD/sodipodi-0.dtd"
   xmlns="http://www.w3.org/2000/svg"
   xmlns:svg="http://www.w3.org/2000/svg">
  <sodipodi:namedview
     id="namedview1"
     pagecolor="#505050"
     bordercolor="#ffffff"
     borderopacity="1"
     inkscape:showpageshadow="0"
     inkscape:pageopacity="0"
     inkscape:pagecheckerboard="1"
     inkscape:deskcolor="#d1d1d1"
     inkscape:document-units="px"
     inkscape:zoom="11.419338"
     inkscape:cx="9.9392802"
     inkscape:cy="33.583383"
     inkscape:window-width="2560"
     inkscape:window-height="1351"
     inkscape:window-x="3831"
     inkscape:window-y="1194"
     inkscape:window-maximized="1"
     inkscape:current-layer="layer1">
    <sodipodi:guide
       position="0,64"
       orientation="0,32"
       id="guide4"
       inkscape:locked="false" />
    <sodipodi:guide
       position="32,64"
       orientation="64,0"
       id="guide5"
       inkscape:locked="false" />
    <sodipodi:guide
       position="32,0"
       orientation="0,-32"
       id="guide6"
       inkscape:locked="false" />
    <sodipodi:guide
       position="0,0"
       orientation="-64,0"
       id="guide7"
       inkscape:locked="false" />
  </sodipodi:namedview>
  <defs
     id="defs1" />
  <g
     inkscape:label="Layer 1"
     inkscape:groupmode="layer"
     id="layer1">
    <g
       id="g664"
       transform="matrix(0.10286082,0,0,0.13039935,-319.73256,-448.31296)">
						<g
   id="g660">
							<rect
   x="3244.5"
   y="3835.3999"
   class="st103"
   width="36.299999"
   height="93.400002"
   id="rect659"
   style="fill:#685c2f" />

							<path
   class="st104"
   d="m 3280.7,3835.4 v 93.4 h -36.3 c 28.8,-9.4 24.3,-93.4 24.3,-93.4 z"
   id="path659"
   style="opacity:0.31;fill:#685c2f" />

						</g>

						<g
   id="g663">
							<g
   id="g662">
								<path
   class="st105"
   d="m 3108.4,3850.5 c 21.8,-30.9 43.2,-62 64.3,-93.3 -15.8,-0.1 -23.7,-0.2 -39.5,-0.3 19.6,-33.9 39,-68 58.2,-102.1 -16.7,0 -25,0 -41.7,-0.1 38.7,-72.1 77.1,-144.4 115.4,-216.7 2,8.6 3.1,12.8 5.4,21.4 19.8,68.4 45.8,132.1 78.1,195.6 -16,0 -24,0 -40,-0.1 20.4,35.6 42.1,69.9 65.2,103.9 -15,-0.1 -22.5,-0.2 -37.6,-0.3 26.3,33.2 54,65.4 83.1,96.3 -103.5,-1.5 -207.2,-2.9 -310.9,-4.3 z"
   id="path660"
   style="fill:#5fab20" />

								<path
   class="st106"
   d="m 3419.5,3854.7 c -20.6,-0.3 -30.9,-0.4 -51.4,-0.7 -27.9,-29 -54.7,-58.6 -80.8,-89.2 6.4,-4.7 9.6,-7.1 16,-11.8 14.4,-10.8 17.1,-34.1 7.3,-52.9 -11.4,-21.9 -16.7,-32.9 -26.5,-54.7 2.7,-1.2 4.1,-1.9 6.9,-3.1 14.5,-6.6 21.2,-27.2 16,-46 -7.5,-26.3 -13.8,-53.3 -18.9,-80.2 17.5,47.9 37.7,93.6 60.8,139 -16,0 -24,0 -40,-0.1 20.4,35.6 42.1,69.9 65.2,103.9 -15,-0.1 -22.5,-0.2 -37.6,-0.3 26.3,33.1 53.9,65.3 83,96.1 z"
   id="path661"
   style="opacity:0.6;fill:#5fab20" />

								<path
   class="st107"
   d="m 3230.2,3645.3 c -11.2,17.5 -16.8,26.3 -28.2,43.7 -13.4,20.5 -5.9,50.7 15.5,59.7 3.2,1.3 4.8,2 8.1,3.4 -38.4,33.7 -77.4,66.4 -117.2,98.5 21.8,-30.9 43.2,-62 64.3,-93.3 -15.8,-0.1 -23.7,-0.2 -39.5,-0.3 19.6,-33.9 39,-68 58.2,-102.1 -16.7,0 -25,0 -41.7,-0.1 38.7,-72.1 77.1,-144.4 115.4,-216.7 2,8.6 3.1,12.8 5.4,21.4 -20.2,46.2 -40.2,92.5 -59.9,138.9 -5.6,13.1 -2.9,28.8 6.5,36.5 5.3,4.1 7.9,6.2 13.1,10.4 z"
   id="path662"
   style="opacity:0.53;fill:#5fab20" />

							</g>

						</g>

					</g>
  </g>
</svg>
